# xmcd CD database file
#
# Track frame offsets:
#	150
#	17166
#	35137
#	50222
#	60067
#	72277
#	95065
#	113531
#	133824
#	151342
#	162095
#	181005
#	202514
#	223728
#
# Disc length: 3212 seconds
#
# Revision: 0
# Processed by: cddbd v1.4PL0 Copyright (c) Steve Scherf et al.
# Submitted via: CDex 1.50beta8
#
DISCID=ba0c8a0e
DTITLE=Jive connection and Vusi Mahlasela - Special delivery
DYEAR=2001
DGENRE=Rhythmic Soul
TTITLE0=Thululalele
TTITLE1=Intombi ye mbali
TTITLE2=Faceless people part 1
TTITLE3=Faceless people part 2
TTITLE4=Special delivery
TTITLE5=Prodigal son
TTITLE6=Anastacia
TTITLE7=Face to face
TTITLE8=Mahlatse a sekobo
TTITLE9=Still
TTITLE10=Akabongi
TTITLE11=Welcome
TTITLE12=Umzala
TTITLE13=Themba lami
EXTD=YEAR: 2001
EXTT0=
EXTT1=
EXTT2=
EXTT3=
EXTT4=
EXTT5=
EXTT6=
EXTT7=
EXTT8=
EXTT9=
EXTT10=
EXTT11=
EXTT12=
EXTT13=
PLAYORDER=
